<svg xmlns="http://www.w3.org/2000/svg" viewBox="0 0 286.07 125.12"><defs><style>.cls-1{fill:#362d30;}.cls-2{fill:#fdfdfd;}.cls-3{fill:#342c2f;}.cls-4{fill:#342b2e;}.cls-5{fill:#332a2d;}.cls-6{fill:#1a191a;}.cls-7{fill:#31282b;}.cls-8{fill:#2c2628;}.cls-9{fill:#382f32;}.cls-10{fill:#352c2f;}.cls-11{fill:#272626;}.cls-12{fill:#1c1c1c;}.cls-13{fill:#1f181a;}.cls-14{fill:#d1232c;}.cls-15{fill:#222121;}.cls-16{fill:#e51c25;}.cls-17{fill:#22181b;}.cls-18{fill:#ea262e;}.cls-19{fill:#eb1a22;}.cls-20{fill:#e81b25;}.cls-21{fill:#ea2028;}.cls-22{fill:#3d3336;}.cls-23{fill:#e91d26;}.cls-24{fill:#e8181f;}.cls-25{fill:#221a1d;}.cls-26{fill:#212021;}.cls-27{fill:#1f1719;}.cls-28{fill:#2d2c2c;}.cls-29{fill:#2c2c2c;}.cls-30{fill:#040404;}.cls-31{fill:#323131;}.cls-32{fill:#292828;}.cls-33{fill:#363535;}.cls-34{fill:#373737;}.cls-35{fill:#f8f8f8;}</style></defs><title>Asset 3</title><g id="Layer_2" data-name="Layer 2"><g id="Layer_3" data-name="Layer 3"><path class="cls-1" d="M204.42,56.92c-12.48,1.47-25.16,1.84-37.41.09-7.64-1.09-1.88-11.11-3.43-16.84-.94-3.5.37-5.29,4.07-5.3s6,.66,5.15,5.61,1.42,5.69,5.18,5.61c8.78-.18,17.56.12,26.34.23A8.87,8.87,0,0,1,204.42,56.92Z"/><path class="cls-2" d="M66.55,89.81,65.4,92.09c-3.6,1.2-7.1,3.61-11,1.14-2.53-1.58-5.18-2.9-7.6-4.69-6.7-10.08-3.78-11.85.53-20.78,2.29-4.73,7.23-6.86,11.38-4.83C68.63,67.8,70.63,67,71.45,79.87,69.94,83.26,68.76,86.86,66.55,89.81Z"/><path class="cls-3" d="M260.4,68.52c-6.59,0-13.19,0-19.78,0-2.75,0-5.2.36-4.83-4.46.27-3.58.12-6,4.45-6,13.84.31,27.7.29,41.55.06,3.82-.06,4.18,1.88,4.27,5.4.1,4-1.1,5.19-4.55,5.06-7-.28-14.07-.08-21.11-.08Z"/><path class="cls-4" d="M142.14,17.48c0,3.51-.08,7,0,10.52s.37,6.18-4.19,6c-4-.12-5.36-1.16-5.14-5.88a228.62,228.62,0,0,0,0-23.27c-.25-4.63,1.7-4.75,4.66-4.7,2.8,0,5.25-.3,4.75,4.54C141.8,8.93,142.14,13.23,142.14,17.48Z"/><path class="cls-5" d="M44,59.44c-.45,2.25-2,1.39-3.18,1.39-12.58,0-25.16-.1-37.74-.16,6.2-5.73,11.74-12.81,21.21-10.39,3.35.86,7,.13,10.54.14C42.82,50.45,42.82,50.45,44,59.44Z"/><path class="cls-6" d="M150.88,107.66c-14.71,6.14-23.11-1.9-21.65-17.26.65-6.9,6-12.74,12.23-12.87,2,0,4-.06,5.94,0,3.6.12,12,7.08,10.79,8.84-2.81,4.15-5.24,9.45-11.07,9.22-3.51-.13-7-.17-10.55,0-1.52.1-3.8-1.29-4.41,1.48a6.43,6.43,0,0,0,1.4,5.54c2.45,2.94,4.81,5.71,8.95,5.08C145.26,107.33,148.09,107.66,150.88,107.66Z"/><path class="cls-7" d="M13.59,25l29.18,0c1.3,9.51,1.3,9.52-6.37,9.54H20.6C12.29,34.56,12.29,34.56,13.59,25Z"/><path class="cls-1" d="M79.85.67c2.71,10.38,1.16,21,.82,31.45-.12,3.56-4.84,1.19-7.47,1.47-2.61-9.66-1.33-19.56-.88-29.3C72.55-.7,77.63,2.84,79.85.67Z"/><path class="cls-8" d="M44,59.44c-.76-6.89-4.45-8.23-10-7.64a77.88,77.88,0,0,1-16.44,0c-5.37-.58-6.69,1.55-4.77,6.85-3.26,2-6.91-.69-9.75,2C-1.56,59.77.4,55.62.49,52.94c.1-3.26,2.73-3.16,5-3.18,10.1-.08,20.2-.29,30.31-.41C44.53,49.25,44.53,49.28,44,59.44Z"/><path class="cls-9" d="M111.63,45.84c-9.67-1.38-9.51-1.38-9.58-16.78,0-4.45.74-6,5-5.93,3.89.1,4.83,1.57,4.63,5.63-.28,5.72-.1,11.47-.12,17.21Z"/><path class="cls-10" d="M183.19,33.85a43.57,43.57,0,0,0-5.94,0c-3.93.53-3.53-2.47-3.5-5.22s-.6-5.74,3.41-5.42c3.29.27,6.61.11,9.91,0,3.49,0,6.81-1.06,6.71,5.63s-3.7,4.63-6.62,4.89C185.84,34,184.52,33.85,183.19,33.85Z"/><path class="cls-11" d="M104.39,110.15c-8.32-1.65-17.55,4.54-25-4.82-4.81-6.06-3.28-13.62-1.73-19.78a10.77,10.77,0,0,1,12-8.21c4.92.59,9.93.12,14.93.89-4.49,3.15-9.44,1.67-14.16,1.87-8.13.33-11.69,4.32-11.7,13.79s3.64,13.68,11.66,13.73c4.39,0,8.79,0,13.18.13.34,0,.68.39,1,.61C104.54,109,104.47,109.55,104.39,110.15Z"/><path class="cls-12" d="M70.43,80.25C70.25,70.77,67.64,66.91,58.88,64c-4.13-1.36-7.88.4-10.35,4.17-5.38,8.21-5.32,12-.54,20.1.14,1.39-.14,2.23-1.57,1.48C40.06,83,40,77.46,46.27,67.11c3.6-6,9.85-7.61,16-4.21C71.53,68,74.55,74.1,71.7,82,70.5,82.14,69.74,81.87,70.43,80.25Z"/><path class="cls-13" d="M32.85,11.24c-5.51,0-11-.3-16.53.11-3.76.29-4.47-1.48-4.23-5.14.2-3.16-.75-6.36,4-6.2C27.8.4,39.5.38,51.18.08c4.15-.1,4,2.37,3.9,5.57-.08,2.95.7,6-3.71,5.69C45.22,10.93,39,11.24,32.85,11.24Z"/><path class="cls-14" d="M11.87,18.26c-.5,2.3,1.34,7.21-3,5.93C6,23.37.26,26.81.58,18.51c.19-4.92,1.32-6.45,5.58-6.13C9.68,12.65,13,12.23,11.87,18.26Z"/><path class="cls-15" d="M183.38,101.62c-1.63-4.86-1-10-.6-14.82.51-6.06-1.57-7.31-6.22-6.76-2,.24-4.31.92-6.79-1.24,2.45-2.2,5.13-1.49,7.35-1.21,4.66.59,6.28-1.17,5.56-6.5-.35-2.56-.65-5.44.75-8,.5.39,1,.55,1.08.87,1.38,4.32-2.08,10.42,1.87,13,2.84,1.86,7.38.36,11.39.36-.66,3.43-2.25,2.71-3.4,2.77-9.54.57-9.53.55-9.53,11.36,0,2.75-.09,5.5-.14,8.24C185.31,101.24,184.68,101.72,183.38,101.62Z"/><path class="cls-16" d="M50.79,49.12c-4.18,1-5.87-.52-5.55-5.38.26-3.92-.3-7.36,5-6.87,3.8.35,6.25.5,6,6C56,47.51,55.33,50.48,50.79,49.12Z"/><path class="cls-17" d="M173.62.58C185.76.48,197.9.6,210,.15c4.07-.15,4,2.05,4.11,5.36.12,3.5-.7,4.75-4,4.69-12.13-.26-24.28-.14-36.42-.17a2.38,2.38,0,0,1,.43-2.36C179.36,4.66,185,6.35,190.4,6s11,.26,16.51-.93c-7.2-.72-14.44-.56-21.66-.69-3.71-.07-7.53.7-11-1.52A2.19,2.19,0,0,1,173.62.58Z"/><path class="cls-18" d="M111.53,46l10.63,0-.13-.15c.11,2,.15,4,.35,6,.38,3.88-.42,5.93-4.52,5.83-3.86-.09-6.45-.7-6.19-5.91.1-2,0-3.92,0-5.89Z"/><path class="cls-19" d="M204.42,56.92c0-3.53-.07-7.07-.1-10.6a45.46,45.46,0,0,0,5.23-.29c4-.66,4.69,1.56,4.7,5.56s-.6,6.29-4.61,5.69C207.91,57,206.16,57,204.42,56.92Z"/><path class="cls-20" d="M173.62.58l.3,1.63a4.83,4.83,0,0,1,0,6c-.06.6-.13,1.21-.2,1.81-.33.41-.67.82-1,1.24-3,2.33-6,2.82-9.05,0C163.23-.81,160.81-.51,173.62.58Z"/><path class="cls-21" d="M92,45.73a29,29,0,0,0,5.26.16c4.52-.68,4,2.65,4.27,6,.28,4.33-1.13,5.66-4.86,5.55-3.36-.09-5.64-.49-5-5.21.29-2.2.32-4.44.47-6.66Z"/><path class="cls-22" d="M163.66,11.29l9.05,0c0,1.49.06,3,.08,4.48,0,3.69.84,7.23-4.68,7.13-5.31-.1-4.81-3.34-4.65-7.13C163.52,14.27,163.59,12.78,163.66,11.29Z"/><path class="cls-23" d="M92.12,45.59c-2,.14-3.94.17-5.89.45-3.72.54-4.93-1.08-4.83-5.41.09-3.93.57-5.88,4.6-5.72,3.42.13,5.45.65,4.88,5.25-.23,1.89-.47,4,1.1,5.57Z"/><path class="cls-24" d="M122.16,46a30.81,30.81,0,0,0,.11-5.25c-.67-4.76,1.08-5.88,5.08-5.83,3.81.05,4.66,1.47,4.79,5.59.16,5-1.75,6.06-5.48,5.52a41.88,41.88,0,0,0-4.62-.18Z"/><path class="cls-25" d="M79.85.67c-6.44,1-7,5.87-6.71,12,.38,6.94.07,13.93.06,20.9-3,.19-2.21-2.41-2.23-4.17-.08-6.51,0-13,0-19.53C70.94-.08,70.94-.08,79.85.67Z"/><path class="cls-26" d="M225.71,106.52l-3,7.14c-1.15.14-2,0-1.25-1.7,1-3.14-.1-5.77-1.34-8.52-3.66-8.1-7.15-16.29-10-24.83,5.11,6.13,7.34,14.14,11,21.17,1,1.85.72,5.54,4.21,4.21A1.84,1.84,0,0,1,225.71,106.52Z"/><path class="cls-27" d="M13.59,25c-1,7.28,1.72,9.77,8,8.94a51.75,51.75,0,0,1,13.16,0c6.26.81,9.09-1.58,8-8.92,3.31,8.49,2.31,10.76-4.74,10.78q-9.91,0-19.84,0C11.31,35.83,10.18,33.15,13.59,25Z"/><path class="cls-28" d="M225.71,106.52c-.13-.85-.26-1.69-.38-2.53,2.79-9.2,7.27-17.4,11.09-26l2,1.08Q232.07,92.79,225.71,106.52Z"/><path class="cls-29" d="M183.38,101.62l1.32-2c4.81,7.22,4.81,7.22,13,.43-.72,5.16-4.12,8.83-6.73,9.24C187.62,109.87,185.27,105.16,183.38,101.62Z"/><path class="cls-30" d="M117.93,108.78c-1.53-6.46-1.49-24.18,0-31.91Z"/><path class="cls-31" d="M221.5,112l1.25,1.7c-1.36,3.73-2.28,7.76-6,11.46C217.18,119.26,219.39,115.63,221.5,112Z"/><path class="cls-32" d="M55,92.43c3.52,2.08,6.89-1.61,10.39-.34-3.69,3.27-7.45,5.91-12,1.85C53.27,92.52,53.56,91.66,55,92.43Z"/><path class="cls-33" d="M70.43,80.25,71.7,82c-1.51,2.78-1,7.25-5.15,7.81C66.74,86,68.57,83.14,70.43,80.25Z"/><path class="cls-34" d="M55,92.43l-1.62,1.51a17,17,0,0,1-7-4.15L48,88.31Z"/><path class="cls-35" d="M142,92.49a7.84,7.84,0,0,1-2.61,0c-2.52-.91-7.21,2.65-7.24-3a9,9,0,0,1,7.54-8.79c2.55-.52,5.24,0,7.86-.13,3.83-.14,7.07,2.75,6.9,6a6.84,6.84,0,0,1-7.21,6C145.51,92.37,143.76,92.49,142,92.49Z"/><path class="cls-5" d="M33.32,9.7c-5.28,0-10.56,0-15.84,0-2.3,0-3.82-.76-3.81-3.78s1.55-3.76,3.84-3.75q16.16,0,32.33,0c2.51,0,3.56,1.31,3.46,4.15C53.2,9,51.82,9.71,49.82,9.7Z"/><path class="cls-3" d="M173.91,8.22q0-3,0-6c11.18,0,22.36,0,33.55,0,1.84,0,4.39-.68,4.61,2.62.28,3.93-2.53,3.34-4.62,3.35C196.28,8.24,185.1,8.22,173.91,8.22Z"/></g></g></svg>